{"glyphs":{"0":{"ha":732,"x_min":86,"x_max":646,"o":"m 365 -8 q 255 8 306 -8 q 167 58 204 24 q 108 149 129 93 q 86 283 86 204 l 86 724 q 108 858 86 803 q 167 949 129 914 q 255 999 204 983 q 365 1015 306 1015 q 475 999 424 1015 q 565 949 526 983 q 624 858 603 914 q 646 724 646 803 l 646 283 q 624 149 646 204 q 565 58 603 93 q 475 8 526 24 q 365 -8 424 -8 m 576 724 q 521 894 576 840 q 365 949 465 949 q 210 894 265 949 q 156 724 156 840 l 156 283 q 210 113 156 167 q 365 58 265 58 q 521 113 465 58 q 576 283 576 167 l 576 724 m 367 549 q 399 535 386 549 q 413 503 413 522 q 399 469 413 483 q 367 456 386 456 q 333 469 346 456 q 319 503 319 483 q 333 535 319 522 q 367 549 346 549 z "},"1":{"ha":306,"x_min":22,"x_max":206,"o":"m 136 874 l 78 774 q 53 756 68 756 q 31 765 39 756 q 22 788 22 775 q 28 806 22 794 q 39 824 35 818 l 142 993 q 154 1009 147 1003 q 175 1015 161 1015 q 196 1008 186 1015 q 206 986 206 1001 l 206 31 q 194 8 206 15 q 171 0 183 0 q 147 8 157 0 q 136 31 136 15 l 136 874 z "},"2":{"ha":650,"x_min":51,"x_max":607,"o":"m 75 792 q 94 880 75 839 q 147 951 113 921 q 226 998 181 981 q 326 1015 272 1015 q 435 994 386 1015 q 520 938 485 974 q 575 854 556 901 q 594 753 594 807 q 559 619 594 678 q 472 511 524 560 q 358 420 419 463 q 244 338 296 378 q 156 256 192 297 q 121 165 121 214 l 121 67 l 579 67 q 599 57 590 67 q 607 33 607 47 q 599 10 607 21 q 579 0 590 0 l 85 0 q 63 8 74 0 q 51 31 51 15 l 51 165 q 87 272 51 224 q 174 363 122 319 q 288 449 226 407 q 402 537 350 492 q 490 634 454 582 q 525 750 525 686 q 513 821 525 785 q 476 885 501 857 q 413 931 451 913 q 324 949 375 949 q 195 905 246 949 q 144 774 144 861 q 135 753 144 763 q 107 744 126 744 q 83 755 90 744 q 75 792 75 765 z "},"3":{"ha":667,"x_min":43,"x_max":603,"o":"m 319 58 q 478 112 422 58 q 533 281 533 165 l 533 307 q 476 456 533 407 q 324 504 419 504 q 301 515 308 504 q 293 536 293 525 q 300 558 293 549 q 322 568 307 568 q 403 578 368 568 q 461 610 438 588 q 497 668 485 632 q 508 757 508 704 q 466 901 508 853 q 328 950 424 950 q 231 933 268 950 q 172 892 193 917 q 144 838 151 867 q 138 788 138 810 q 103 749 138 749 q 76 758 83 749 q 68 796 68 768 q 78 860 68 822 q 118 932 89 897 q 199 991 147 967 q 332 1015 250 1015 q 431 1002 386 1015 q 509 960 476 989 q 559 885 542 932 q 576 772 576 839 q 542 617 576 674 q 461 536 508 560 q 563 456 524 510 q 603 307 603 401 l 603 281 q 581 147 603 201 q 521 58 558 92 q 433 8 483 24 q 324 -8 382 -8 q 200 13 253 -8 q 113 65 147 33 q 60 138 78 97 q 43 215 43 178 q 51 249 43 240 q 75 258 60 258 q 103 249 96 258 q 111 225 111 239 q 120 174 111 203 q 152 120 129 146 q 216 76 175 94 q 319 58 257 58 z "},"4":{"ha":596,"x_min":13,"x_max":579,"o":"m 400 243 l 43 243 q 20 252 28 243 q 13 274 13 261 q 18 294 13 283 l 371 992 q 387 1010 378 1004 q 406 1015 396 1015 q 428 1007 417 1015 q 439 986 439 999 q 435 969 439 978 l 101 311 l 400 311 l 400 610 q 411 631 400 625 q 435 638 422 638 q 459 631 449 638 q 469 610 469 625 l 469 311 l 549 311 q 572 301 564 311 q 579 278 579 290 q 572 253 579 264 q 549 243 564 243 l 469 243 l 469 31 q 459 8 469 15 q 435 0 449 0 q 411 8 422 0 q 400 31 400 15 l 400 243 z "},"5":{"ha":649,"x_min":42,"x_max":601,"o":"m 322 589 q 432 574 381 589 q 521 525 483 558 q 580 438 558 492 q 601 308 601 385 l 601 282 q 580 147 601 203 q 520 58 558 92 q 431 8 482 24 q 321 -8 379 -8 q 203 10 254 -8 q 115 60 151 29 q 60 134 79 92 q 42 224 42 176 q 51 251 42 243 q 75 260 61 260 q 111 229 111 260 q 128 157 111 189 q 173 103 144 125 q 240 69 201 81 q 321 58 278 58 q 476 113 421 58 q 532 282 532 167 l 532 308 q 476 472 532 419 q 322 525 421 525 l 132 525 q 99 533 106 525 q 92 553 92 542 q 92 565 92 556 q 93 578 93 575 l 119 985 q 146 1015 122 1015 l 525 1015 q 545 1005 539 1015 q 551 982 551 994 q 545 959 551 969 q 525 949 539 949 l 185 949 l 160 589 l 322 589 z "},"6":{"ha":710,"x_min":86,"x_max":646,"o":"m 372 594 q 481 581 431 594 q 567 536 531 568 q 625 451 604 504 q 646 319 646 399 l 646 283 q 624 149 646 204 q 565 58 603 93 q 477 8 528 24 q 367 -8 426 -8 q 257 8 308 -8 q 167 58 206 24 q 108 149 129 93 q 86 283 86 204 l 86 724 q 108 858 86 803 q 167 949 129 914 q 257 999 206 983 q 368 1015 308 1015 q 486 996 435 1015 q 573 944 538 976 q 627 870 608 913 q 646 782 646 828 q 637 755 646 763 q 614 747 628 747 q 588 755 600 747 q 576 779 576 763 q 560 849 576 818 q 515 903 543 881 q 448 937 486 925 q 367 949 410 949 q 212 894 267 949 q 157 724 157 840 l 157 496 q 249 571 193 547 q 372 594 306 594 m 157 281 q 212 111 157 165 q 367 57 267 57 q 522 111 467 57 q 576 281 576 165 l 576 318 q 521 482 576 433 q 367 531 465 531 q 214 485 271 531 q 157 331 157 440 l 157 281 z "},"7":{"ha":625,"x_min":42,"x_max":601,"o":"m 601 876 q 593 851 601 864 l 165 15 q 140 -1 156 -1 q 111 7 124 -1 q 99 31 99 15 q 104 49 99 35 l 532 878 l 532 949 l 111 949 l 111 778 q 101 756 111 765 q 76 747 90 747 q 51 756 61 747 q 42 778 42 765 l 42 985 q 52 1006 42 996 q 75 1015 63 1015 l 568 1015 q 590 1006 579 1015 q 601 985 601 996 l 601 876 z "},"8":{"ha":686,"x_min":64,"x_max":622,"o":"m 343 1015 q 444 1003 397 1015 q 524 963 490 992 q 578 888 558 935 q 597 774 597 842 q 564 629 597 682 q 476 553 531 576 q 583 464 543 525 q 622 294 622 403 l 622 278 q 601 146 622 200 q 542 57 579 92 q 453 7 504 22 q 343 -8 403 -8 q 233 7 285 -8 q 144 57 182 22 q 85 146 107 92 q 64 278 64 200 l 64 294 q 104 464 64 403 q 211 553 144 525 q 124 629 157 576 q 90 774 90 682 q 110 888 90 842 q 163 963 129 935 q 243 1003 197 992 q 343 1015 289 1015 m 553 299 q 497 467 553 414 q 343 519 442 519 q 189 467 244 519 q 133 299 133 414 l 133 281 q 190 110 133 165 q 344 56 246 56 q 498 111 443 56 q 553 281 553 167 l 553 299 m 343 951 q 208 910 256 951 q 160 769 160 868 q 208 628 160 671 q 343 585 256 585 q 479 628 431 585 q 528 769 528 671 q 479 910 528 868 q 343 951 431 951 z "},"9":{"ha":708,"x_min":64,"x_max":622,"o":"m 336 413 q 229 426 279 413 q 142 471 179 439 q 85 556 106 503 q 64 688 64 608 l 64 724 q 85 858 64 803 q 144 949 107 914 q 233 999 182 983 q 342 1015 283 1015 q 453 999 401 1015 q 542 949 504 983 q 601 858 579 914 q 622 724 622 803 l 622 283 q 601 149 622 204 q 542 58 579 93 q 453 8 504 24 q 342 -8 401 -8 q 223 11 275 -8 q 135 63 171 31 q 82 137 100 94 q 64 225 64 179 q 96 260 64 260 q 121 252 110 260 q 132 228 132 244 q 149 158 132 189 q 194 104 165 126 q 262 70 224 82 q 343 58 300 58 q 498 113 443 58 q 553 283 553 167 l 553 511 q 460 436 517 460 q 336 413 404 413 m 553 726 q 497 896 553 842 q 342 950 442 950 q 188 896 243 950 q 133 726 133 842 l 133 689 q 189 525 133 574 q 343 476 244 476 q 496 522 439 476 q 553 676 553 567 l 553 726 z "},"A":{"ha":736,"x_min":32,"x_max":704,"o":"m 71 0 q 44 8 57 0 q 32 31 32 15 q 33 39 32 36 l 331 999 q 369 1024 339 1024 q 393 1017 382 1024 q 408 999 404 1011 l 703 39 q 703 35 703 36 q 704 31 704 33 q 692 9 704 18 q 664 0 679 0 q 636 21 642 0 l 568 242 l 168 242 l 101 21 q 71 0 94 0 m 549 306 l 369 899 l 186 306 l 549 306 z "},"Æ":{"ha":968,"x_min":106,"x_max":931,"o":"m 575 540 l 789 540 q 810 531 803 540 q 818 507 818 521 q 811 486 818 496 q 789 476 804 476 l 575 476 l 575 67 l 903 67 q 924 56 917 67 q 931 32 931 46 q 924 10 931 21 q 903 0 918 0 l 539 0 q 516 8 526 0 q 506 31 506 15 l 506 476 l 174 476 l 174 38 q 168 11 174 22 q 139 0 163 0 q 113 11 121 0 q 106 38 106 22 l 106 724 q 127 858 106 803 q 187 949 149 914 q 276 999 225 983 q 385 1015 326 1015 l 903 1015 q 924 1005 918 1015 q 931 983 931 994 q 924 959 931 969 q 903 949 917 949 l 575 949 l 575 540 m 174 540 l 506 540 l 506 949 l 385 949 q 229 894 285 949 q 174 724 174 840 l 174 540 z "},"Ǽ":{"ha":968,"x_min":106,"x_max":931,"o":"m 446 1188 q 432 1183 439 1183 q 410 1193 419 1183 q 401 1215 401 1203 q 414 1236 401 1231 l 563 1321 q 574 1324 568 1324 q 593 1313 586 1324 q 600 1292 600 1303 q 585 1264 600 1274 l 446 1188 m 575 540 l 789 540 q 810 531 803 540 q 818 507 818 521 q 811 486 818 496 q 789 476 804 476 l 575 476 l 575 67 l 903 67 q 924 56 917 67 q 931 32 931 46 q 924 10 931 21 q 903 0 918 0 l 539 0 q 516 8 526 0 q 506 31 506 15 l 506 476 l 174 476 l 174 38 q 168 11 174 22 q 139 0 163 0 q 113 11 121 0 q 106 38 106 22 l 106 724 q 127 858 106 803 q 187 949 149 914 q 276 999 225 983 q 385 1015 326 1015 l 903 1015 q 924 1005 918 1015 q 931 983 931 994 q 924 959 931 969 q 903 949 917 949 l 575 949 l 575 540 m 174 540 l 506 540 l 506 949 l 385 949 q 229 894 285 949 q 174 724 174 840 l 174 540 z "},"Á":{"ha":736,"x_min":32,"x_max":704,"o":"m 71 0 q 44 8 57 0 q 32 31 32 15 q 33 39 32 36 l 331 999 q 369 1024 339 1024 q 393 1017 382 1024 q 408 999 404 1011 l 703 39 q 703 35 703 36 q 704 31 704 33 q 692 9 704 18 q 664 0 679 0 q 636 21 642 0 l 568 242 l 168 242 l 101 21 q 71 0 94 0 m 549 306 l 369 899 l 186 306 l 549 306 m 319 1189 q 306 1185 313 1185 q 284 1194 293 1185 q 275 1217 275 1204 q 288 1238 275 1232 l 436 1322 q 447 1325 442 1325 q 467 1315 460 1325 q 474 1293 474 1304 q 458 1265 474 1275 l 319 1189 z "},"Ă":{"ha":736,"x_min":32,"x_max":704,"o":"m 71 0 q 44 8 57 0 q 32 31 32 15 q 33 39 32 36 l 331 999 q 369 1024 339 1024 q 393 1017 382 1024 q 408 999 404 1011 l 703 39 q 703 35 703 36 q 704 31 704 33 q 692 9 704 18 q 664 0 679 0 q 636 21 642 0 l 568 242 l 168 242 l 101 21 q 71 0 94 0 m 549 306 l 369 899 l 186 306 l 549 306 m 525 1346 q 512 1285 525 1314 q 477 1235 499 1257 q 428 1201 456 1214 q 369 1189 400 1189 q 310 1201 338 1189 q 260 1235 282 1214 q 225 1285 238 1257 q 213 1346 213 1314 l 265 1346 q 296 1265 265 1297 q 369 1232 326 1232 q 408 1241 390 1232 q 441 1265 426 1250 q 464 1301 456 1281 q 472 1346 472 1322 l 525 1346 z "},"Â":{"ha":736,"x_min":32,"x_max":704,"o":"m 71 0 q 44 8 57 0 q 32 31 32 15 q 33 39 32 36 l 331 999 q 369 1024 339 1024 q 393 1017 382 1024 q 408 999 404 1011 l 703 39 q 703 35 703 36 q 704 31 704 33 q 692 9 704 18 q 664 0 679 0 q 636 21 642 0 l 568 242 l 168 242 l 101 21 q 71 0 94 0 m 549 306 l 369 899 l 186 306 l 549 306 m 224 1189 q 218 1186 221 1188 q 213 1185 215 1185 q 193 1194 201 1185 q 185 1217 185 1203 q 200 1240 185 1232 l 344 1318 q 368 1325 356 1325 q 392 1318 381 1325 l 536 1242 q 551 1214 551 1233 q 544 1194 551 1203 q 525 1186 536 1186 q 519 1188 522 1186 q 513 1190 515 1189 l 368 1267 l 224 1189 z "},"Ä":{"ha":736,"x_min":32,"x_max":704,"o":"m 71 0 q 44 8 57 0 q 32 31 32 15 q 33 39 32 36 l 331 999 q 369 1024 339 1024 q 393 1017 382 1024 q 408 999 404 1011 l 703 39 q 703 35 703 36 q 704 31 704 33 q 692 9 704 18 q 664 0 679 0 q 636 21 642 0 l 568 242 l 168 242 l 101 21 q 71 0 94 0 m 549 306 l 369 899 l 186 306 l 549 306 m 288 1276 q 319 1264 307 1276 q 332 1232 332 1251 q 319 1199 332 1213 q 288 1186 307 1186 q 255 1199 268 1186 q 242 1232 242 1213 q 255 1264 242 1251 q 288 1276 268 1276 m 450 1276 q 482 1264 469 1276 q 494 1232 494 1251 q 482 1199 494 1213 q 450 1186 469 1186 q 417 1199 429 1186 q 404 1232 404 1213 q 417 1264 404 1251 q 450 1276 429 1276 z "},"À":{"ha":736,"x_min":32,"x_max":704,"o":"m 71 0 q 44 8 57 0 q 32 31 32 15 q 33 39 32 36 l 331 999 q 369 1024 339 1024 q 393 1017 382 1024 q 408 999 404 1011 l 703 39 q 703 35 703 36 q 704 31 704 33 q 692 9 704 18 q 664 0 679 0 q 636 21 642 0 l 568 242 l 168 242 l 101 21 q 71 0 94 0 m 549 306 l 369 899 l 186 306 l 549 306 m 282 1265 q 267 1293 267 1275 q 274 1315 267 1304 q 294 1325 282 1325 q 304 1322 299 1325 l 453 1238 q 465 1217 465 1232 q 456 1194 465 1204 q 435 1185 447 1185 q 421 1189 429 1185 l 282 1265 z "},"Ā":{"ha":736,"x_min":32,"x_max":704,"o":"m 71 0 q 44 8 57 0 q 32 31 32 15 q 33 39 32 36 l 331 999 q 369 1024 339 1024 q 393 1017 382 1024 q 408 999 404 1011 l 703 39 q 703 35 703 36 q 704 31 704 33 q 692 9 704 18 q 664 0 679 0 q 636 21 642 0 l 568 242 l 168 242 l 101 21 q 71 0 94 0 m 549 306 l 369 899 l 186 306 l 549 306 m 189 1276 q 197 1298 189 1289 q 218 1307 204 1307 l 519 1307 q 540 1298 531 1307 q 550 1276 550 1289 q 540 1256 550 1264 q 519 1249 531 1249 l 218 1249 q 189 1276 189 1249 z "},"Ą":{"ha":736,"x_min":32,"x_max":704,"o":"m 668 -232 q 693 -254 693 -232 q 686 -270 693 -265 q 660 -275 679 -275 q 615 -270 638 -275 q 575 -254 593 -265 q 545 -224 557 -243 q 533 -176 533 -204 q 562 -69 533 -118 q 636 21 590 -19 l 568 242 l 168 242 l 101 21 q 71 0 94 0 q 44 8 57 0 q 32 31 32 15 q 33 39 32 36 l 331 999 q 369 1024 339 1024 q 393 1017 382 1024 q 408 999 404 1011 l 703 39 q 703 35 703 36 q 704 31 704 33 q 682 4 704 14 q 610 -78 639 -36 q 581 -172 581 -119 q 604 -219 581 -206 q 668 -232 628 -232 m 549 306 l 369 899 l 186 306 l 549 306 z "},"Å":{"ha":736,"x_min":32,"x_max":704,"o":"m 71 0 q 44 8 57 0 q 32 31 32 15 q 33 39 32 36 l 331 999 q 369 1024 339 1024 q 393 1017 382 1024 q 408 999 404 1011 l 703 39 q 703 35 703 36 q 704 31 704 33 q 692 9 704 18 q 664 0 679 0 q 636 21 642 0 l 568 242 l 168 242 l 101 21 q 71 0 94 0 m 549 306 l 369 899 l 186 306 l 549 306 m 368 1424 q 416 1413 393 1424 q 456 1385 439 1403 q 484 1344 474 1368 q 494 1296 494 1321 q 484 1246 494 1269 q 456 1204 474 1222 q 416 1176 439 1186 q 368 1165 393 1165 q 319 1176 342 1165 q 278 1204 296 1186 q 251 1246 261 1222 q 242 1296 242 1269 q 251 1344 242 1321 q 278 1385 261 1367 q 319 1413 296 1403 q 368 1424 342 1424 m 454 1296 q 429 1355 454 1328 q 368 1382 404 1382 q 334 1374 350 1382 q 306 1354 318 1367 q 288 1326 294 1342 q 281 1296 281 1311 q 306 1232 281 1261 q 368 1203 332 1203 q 429 1231 404 1203 q 454 1296 454 1260 z "},"Ã":{"ha":736,"x_min":32,"x_max":704,"o":"m 71 0 q 44 8 57 0 q 32 31 32 15 q 33 39 32 36 l 331 999 q 369 1024 339 1024 q 393 1017 382 1024 q 408 999 404 1011 l 703 39 q 703 35 703 36 q 704 31 704 33 q 692 9 704 18 q 664 0 679 0 q 636 21 642 0 l 568 242 l 168 242 l 101 21 q 71 0 94 0 m 549 306 l 369 899 l 186 306 l 549 306 m 281 1260 q 243 1253 258 1260 q 217 1237 228 1246 q 198 1221 206 1228 q 182 1214 190 1214 q 165 1223 171 1214 q 160 1243 160 1232 q 172 1273 160 1260 q 203 1297 185 1286 q 244 1313 222 1307 q 283 1318 265 1318 q 331 1310 310 1318 q 372 1293 351 1303 q 413 1276 392 1283 q 463 1268 435 1268 q 500 1275 486 1268 q 524 1290 514 1282 q 540 1304 533 1297 q 556 1311 547 1311 q 573 1303 567 1311 q 579 1285 579 1294 q 567 1251 579 1265 q 536 1228 554 1238 q 498 1215 518 1219 q 463 1210 478 1210 q 415 1217 436 1210 q 374 1235 394 1225 q 331 1252 353 1244 q 281 1260 310 1260 z "},"B":{"ha":739,"x_min":110,"x_max":669,"o":"m 110 985 q 120 1008 110 1000 q 143 1015 131 1015 l 360 1015 q 472 1006 419 1015 q 562 972 524 997 q 622 900 600 946 q 644 782 644 854 q 612 633 644 692 q 526 550 579 574 q 585 517 558 536 q 630 469 611 497 q 659 401 649 440 q 669 308 669 363 l 669 283 q 649 150 669 204 q 591 63 628 96 q 504 15 554 29 q 396 0 454 0 l 143 0 q 119 9 128 0 q 110 29 110 18 l 110 985 m 390 67 q 544 119 489 67 q 600 286 600 171 l 600 310 q 585 406 600 367 q 544 471 571 446 q 478 507 517 496 q 390 518 439 518 l 179 518 l 179 67 l 390 67 m 179 582 l 367 582 q 459 592 419 582 q 524 624 499 601 q 563 684 550 647 q 575 776 575 721 q 559 864 575 831 q 515 916 543 897 q 447 942 486 935 q 361 949 408 949 l 179 949 l 179 582 z "},"C":{"ha":718,"x_min":100,"x_max":660,"o":"m 590 774 q 581 828 589 797 q 550 885 572 858 q 488 931 528 913 q 383 949 447 949 q 224 894 279 949 q 169 724 169 840 l 169 283 q 224 112 169 165 q 388 58 279 58 q 491 76 453 58 q 550 121 529 94 q 578 178 571 147 q 590 235 586 208 q 599 256 592 247 q 624 264 606 264 q 651 255 642 264 q 660 217 660 246 q 641 133 660 174 q 587 60 622 92 q 499 10 551 29 q 379 -8 447 -8 q 272 8 322 -8 q 183 58 221 24 q 122 149 144 93 q 100 283 100 204 l 100 724 q 123 858 100 803 q 184 949 146 914 q 274 999 222 983 q 383 1015 325 1015 q 502 997 450 1015 q 589 947 554 978 q 642 874 624 915 q 660 790 660 833 q 651 753 660 763 q 625 744 642 744 q 597 753 604 744 q 590 774 590 763 z "},"\r":{"ha":0,"x_min":0,"x_max":0,"o":""},"Ć":{"ha":718,"x_min":100,"x_max":660,"o":"m 328 1189 q 314 1185 321 1185 q 292 1194 301 1185 q 283 1217 283 1204 q 296 1238 283 1232 l 444 1322 q 456 1325 450 1325 q 475 1315 468 1325 q 482 1293 482 1304 q 467 1265 482 1275 l 328 1189 m 590 774 q 581 828 589 797 q 550 885 572 858 q 488 931 528 913 q 383 949 447 949 q 224 894 279 949 q 169 724 169 840 l 169 283 q 224 112 169 165 q 388 58 279 58 q 491 76 453 58 q 550 121 529 94 q 578 178 571 147 q 590 235 586 208 q 599 256 592 247 q 624 264 606 264 q 651 255 642 264 q 660 217 660 246 q 641 133 660 174 q 587 60 622 92 q 499 10 551 29 q 379 -8 447 -8 q 272 8 322 -8 q 183 58 221 24 q 122 149 144 93 q 100 283 100 204 l 100 724 q 123 858 100 803 q 184 949 146 914 q 274 999 222 983 q 383 1015 325 1015 q 502 997 450 1015 q 589 947 554 978 q 642 874 624 915 q 660 790 660 833 q 651 753 660 763 q 625 744 642 744 q 597 753 604 744 q 590 774 590 763 z "},"Č":{"ha":718,"x_min":100,"x_max":660,"o":"m 378 1226 l 514 1363 q 536 1372 524 1372 q 553 1364 547 1372 q 560 1346 560 1356 q 546 1319 560 1336 l 406 1186 q 378 1172 389 1172 q 349 1186 363 1172 l 210 1319 q 196 1346 196 1333 q 202 1364 196 1356 q 219 1372 208 1372 q 240 1363 231 1372 l 378 1226 m 590 774 q 581 828 589 797 q 550 885 572 858 q 488 931 528 913 q 383 949 447 949 q 224 894 279 949 q 169 724 169 840 l 169 283 q 224 112 169 165 q 388 58 279 58 q 491 76 453 58 q 550 121 529 94 q 578 178 571 147 q 590 235 586 208 q 599 256 592 247 q 624 264 606 264 q 651 255 642 264 q 660 217 660 246 q 641 133 660 174 q 587 60 622 92 q 499 10 551 29 q 379 -8 447 -8 q 272 8 322 -8 q 183 58 221 24 q 122 149 144 93 q 100 283 100 204 l 100 724 q 123 858 100 803 q 184 949 146 914 q 274 999 222 983 q 383 1015 325 1015 q 502 997 450 1015 q 589 947 554 978 q 642 874 624 915 q 660 790 660 833 q 651 753 660 763 q 625 744 642 744 q 597 753 604 744 q 590 774 590 763 z "},"Ç":{"ha":718,"x_min":100,"x_max":660,"o":"m 590 774 q 581 828 589 797 q 550 885 572 858 q 488 931 528 913 q 383 949 447 949 q 224 894 279 949 q 169 724 169 840 l 169 283 q 224 112 169 165 q 388 58 279 58 q 491 76 453 58 q 550 121 529 94 q 578 178 571 147 q 590 235 586 208 q 599 256 592 247 q 624 264 606 264 q 651 255 642 264 q 660 217 660 246 q 644 141 660 178 q 600 74 629 104 q 528 22 571 43 q 429 -4 485 1 l 408 -87 q 510 -120 479 -90 q 540 -186 540 -150 q 510 -257 540 -225 q 422 -289 481 -289 q 392 -287 410 -289 q 357 -281 374 -285 q 328 -270 340 -276 q 317 -256 317 -264 q 322 -237 317 -249 q 336 -226 328 -226 q 361 -235 343 -226 q 414 -244 379 -244 q 472 -228 456 -244 q 489 -189 489 -211 q 464 -144 489 -158 q 396 -128 439 -131 l 350 -125 l 379 -8 q 272 8 322 -8 q 183 58 221 24 q 122 149 144 93 q 100 283 100 204 l 100 724 q 123 858 100 803 q 184 949 146 914 q 274 999 222 983 q 383 1015 325 1015 q 502 997 450 1015 q 589 947 554 978 q 642 874 624 915 q 660 790 660 833 q 651 753 660 763 q 625 744 642 744 q 597 753 604 744 q 590 774 590 763 z "},"Ĉ":{"ha":718,"x_min":100,"x_max":660,"o":"m 235 1189 q 229 1186 232 1188 q 224 1185 226 1185 q 204 1194 213 1185 q 196 1217 196 1203 q 211 1240 196 1232 l 356 1318 q 379 1325 367 1325 q 403 1318 392 1325 l 547 1242 q 563 1214 563 1233 q 555 1194 563 1203 q 536 1186 547 1186 q 530 1188 533 1186 q 524 1190 526 1189 l 379 1267 l 235 1189 m 590 774 q 581 828 589 797 q 550 885 572 858 q 488 931 528 913 q 383 949 447 949 q 224 894 279 949 q 169 724 169 840 l 169 283 q 224 112 169 165 q 388 58 279 58 q 491 76 453 58 q 550 121 529 94 q 578 178 571 147 q 590 235 586 208 q 599 256 592 247 q 624 264 606 264 q 651 255 642 264 q 660 217 660 246 q 641 133 660 174 q 587 60 622 92 q 499 10 551 29 q 379 -8 447 -8 q 272 8 322 -8 q 183 58 221 24 q 122 149 144 93 q 100 283 100 204 l 100 724 q 123 858 100 803 q 184 949 146 914 q 274 999 222 983 q 383 1015 325 1015 q 502 997 450 1015 q 589 947 554 978 q 642 874 624 915 q 660 790 660 833 q 651 753 660 763 q 625 744 642 744 q 597 753 604 744 q 590 774 590 763 z "},"Ċ":{"ha":718,"x_min":100,"x_max":660,"o":"m 590 774 q 581 828 589 797 q 550 885 572 858 q 488 931 528 913 q 383 949 447 949 q 224 894 279 949 q 169 724 169 840 l 169 283 q 224 112 169 165 q 388 58 279 58 q 491 76 453 58 q 550 121 529 94 q 578 178 571 147 q 590 235 586 208 q 599 256 592 247 q 624 264 606 264 q 651 255 642 264 q 660 217 660 246 q 641 133 660 174 q 587 60 622 92 q 499 10 551 29 q 379 -8 447 -8 q 272 8 322 -8 q 183 58 221 24 q 122 149 144 93 q 100 283 100 204 l 100 724 q 123 858 100 803 q 184 949 146 914 q 274 999 222 983 q 383 1015 325 1015 q 502 997 450 1015 q 589 947 554 978 q 642 874 624 915 q 660 790 660 833 q 651 753 660 763 q 625 744 642 744 q 597 753 604 744 q 590 774 590 763 m 379 1276 q 412 1264 399 1276 q 425 1232 425 1251 q 412 1199 425 1213 q 379 1186 399 1186 q 347 1199 360 1186 q 333 1232 333 1213 q 347 1264 333 1251 q 379 1276 360 1276 z "},"D":{"ha":769,"x_min":110,"x_max":669,"o":"m 389 1015 q 499 999 447 1015 q 588 949 550 983 q 648 858 626 914 q 669 724 669 803 l 669 292 q 648 157 669 213 q 588 67 626 101 q 499 16 550 32 q 389 0 447 0 l 143 0 q 119 9 128 0 q 110 29 110 18 l 110 986 q 119 1006 110 997 q 143 1015 128 1015 l 389 1015 m 179 949 l 179 67 l 389 67 q 544 121 489 67 q 600 292 600 175 l 600 724 q 544 894 600 840 q 389 949 489 949 l 179 949 z "},"Ď":{"ha":769,"x_min":110,"x_max":669,"o":"m 385 1226 l 521 1363 q 543 1372 531 1372 q 560 1364 554 1372 q 567 1346 567 1356 q 553 1319 567 1336 l 413 1186 q 385 1172 396 1172 q 356 1186 369 1172 l 217 1319 q 203 1346 203 1333 q 209 1364 203 1356 q 226 1372 215 1372 q 247 1363 238 1372 l 385 1226 m 389 1015 q 499 999 447 1015 q 588 949 550 983 q 648 858 626 914 q 669 724 669 803 l 669 292 q 648 157 669 213 q 588 67 626 101 q 499 16 550 32 q 389 0 447 0 l 143 0 q 119 9 128 0 q 110 29 110 18 l 110 986 q 119 1006 110 997 q 143 1015 128 1015 l 389 1015 m 179 949 l 179 67 l 389 67 q 544 121 489 67 q 600 292 600 175 l 600 724 q 544 894 600 840 q 389 949 489 949 l 179 949 z "},"Đ":{"ha":783,"x_min":1,"x_max":683,"o":"m 403 1015 q 513 999 461 1015 q 602 949 564 983 q 662 858 640 914 q 683 724 683 803 l 683 292 q 662 157 683 213 q 602 67 640 101 q 513 16 564 32 q 403 0 461 0 l 157 0 q 133 9 142 0 q 124 29 124 18 l 124 503 l 29 503 q 9 512 17 503 q 1 533 1 521 q 9 555 1 546 q 29 564 17 564 l 124 564 l 124 986 q 133 1006 124 997 q 157 1015 142 1015 l 403 1015 m 193 949 l 193 564 l 364 564 q 383 555 375 564 q 392 533 392 546 q 383 512 392 521 q 364 503 375 503 l 193 503 l 193 67 l 403 67 q 558 121 503 67 q 614 292 614 175 l 614 724 q 558 894 614 840 q 403 949 503 949 l 193 949 z "},"∆":{"ha":692,"x_min":33,"x_max":657,"o":"m 656 42 q 657 28 657 36 q 625 0 657 0 l 65 0 q 42 7 51 0 q 33 28 33 14 q 36 42 33 31 l 307 997 q 346 1024 315 1024 q 386 997 378 1024 l 656 42 m 575 67 l 346 900 l 114 67 l 575 67 z "},"E":{"ha":699,"x_min":110,"x_max":667,"o":"m 179 540 l 400 540 q 422 531 414 540 q 429 507 429 521 q 422 486 429 496 q 400 476 415 476 l 179 476 l 179 67 l 638 67 q 659 56 651 67 q 667 32 667 46 q 660 10 667 21 q 638 0 653 0 l 143 0 q 120 8 131 0 q 110 31 110 15 l 110 985 q 120 1008 110 1000 q 143 1015 131 1015 l 638 1015 q 660 1005 653 1015 q 667 983 667 994 q 659 959 667 969 q 638 949 651 949 l 179 949 l 179 540 z "},"É":{"ha":699,"x_min":110,"x_max":667,"o":"m 336 1189 q 322 1185 329 1185 q 301 1194 310 1185 q 292 1217 292 1204 q 304 1238 292 1232 l 453 1322 q 464 1325 458 1325 q 483 1315 476 1325 q 490 1293 490 1304 q 475 1265 490 1275 l 336 1189 m 179 540 l 400 540 q 422 531 414 540 q 429 507 429 521 q 422 486 429 496 q 400 476 415 476 l 179 476 l 179 67 l 638 67 q 659 56 651 67 q 667 32 667 46 q 660 10 667 21 q 638 0 653 0 l 143 0 q 120 8 131 0 q 110 31 110 15 l 110 985 q 120 1008 110 1000 q 143 1015 131 1015 l 638 1015 q 660 1005 653 1015 q 667 983 667 994 q 659 959 667 969 q 638 949 651 949 l 179 949 l 179 540 z "},"Ĕ":{"ha":699,"x_min":110,"x_max":667,"o":"m 179 540 l 400 540 q 422 531 414 540 q 429 507 429 521 q 422 486 429 496 q 400 476 415 476 l 179 476 l 179 67 l 638 67 q 659 56 651 67 q 667 32 667 46 q 660 10 667 21 q 638 0 653 0 l 143 0 q 120 8 131 0 q 110 31 110 15 l 110 985 q 120 1008 110 1000 q 143 1015 131 1015 l 638 1015 q 660 1005 653 1015 q 667 983 667 994 q 659 959 667 969 q 638 949 651 949 l 179 949 l 179 540 m 543 1346 q 530 1285 543 1314 q 495 1235 517 1257 q 446 1201 474 1214 q 388 1189 418 1189 q 328 1201 356 1189 q 278 1235 300 1214 q 243 1285 256 1257 q 231 1346 231 1314 l 283 1346 q 314 1265 283 1297 q 388 1232 344 1232 q 426 1241 408 1232 q 459 1265 444 1250 q 482 1301 474 1281 q 490 1346 490 1322 l 543 1346 z "},"Ě":{"ha":699,"x_min":110,"x_max":667,"o":"m 386 1226 l 522 1363 q 544 1372 532 1372 q 562 1364 556 1372 q 568 1346 568 1356 q 554 1319 568 1336 l 414 1186 q 386 1172 397 1172 q 357 1186 371 1172 l 218 1319 q 204 1346 204 1333 q 210 1364 204 1356 q 228 1372 217 1372 q 249 1363 239 1372 l 386 1226 m 179 540 l 400 540 q 422 531 414 540 q 429 507 429 521 q 422 486 429 496 q 400 476 415 476 l 179 476 l 179 67 l 638 67 q 659 56 651 67 q 667 32 667 46 q 660 10 667 21 q 638 0 653 0 l 143 0 q 120 8 131 0 q 110 31 110 15 l 110 985 q 120 1008 110 1000 q 143 1015 131 1015 l 638 1015 q 660 1005 653 1015 q 667 983 667 994 q 659 959 667 969 q 638 949 651 949 l 179 949 l 179 540 z "},"Ê":{"ha":699,"x_min":110,"x_max":667,"o":"m 244 1189 q 239 1186 242 1188 q 233 1185 236 1185 q 214 1194 222 1185 q 206 1217 206 1203 q 221 1240 206 1232 l 365 1318 q 389 1325 376 1325 q 413 1318 401 1325 l 557 1242 q 572 1214 572 1233 q 565 1194 572 1203 q 546 1186 557 1186 q 540 1188 543 1186 q 533 1190 536 1189 l 389 1267 l 244 1189 m 179 540 l 400 540 q 422 531 414 540 q 429 507 429 521 q 422 486 429 496 q 400 476 415 476 l 179 476 l 179 67 l 638 67 q 659 56 651 67 q 667 32 667 46 q 660 10 667 21 q 638 0 653 0 l 143 0 q 120 8 131 0 q 110 31 110 15 l 110 985 q 120 1008 110 1000 q 143 1015 131 1015 l 638 1015 q 660 1005 653 1015 q 667 983 667 994 q 659 959 667 969 q 638 949 651 949 l 179 949 l 179 540 z "},"Ë":{"ha":699,"x_min":110,"x_max":667,"o":"m 307 1276 q 339 1264 326 1276 q 351 1232 351 1251 q 339 1199 351 1213 q 307 1186 326 1186 q 274 1199 288 1186 q 261 1232 261 1213 q 274 1264 261 1251 q 307 1276 288 1276 m 469 1276 q 501 1264 489 1276 q 514 1232 514 1251 q 501 1199 514 1213 q 469 1186 489 1186 q 436 1199 449 1186 q 424 1232 424 1213 q 436 1264 424 1251 q 469 1276 449 1276 m 179 540 l 400 540 q 422 531 414 540 q 429 507 429 521 q 422 486 429 496 q 400 476 415 476 l 179 476 l 179 67 l 638 67 q 659 56 651 67 q 667 32 667 46 q 660 10 667 21 q 638 0 653 0 l 143 0 q 120 8 131 0 q 110 31 110 15 l 110 985 q 120 1008 110 1000 q 143 1015 131 1015 l 638 1015 q 660 1005 653 1015 q 667 983 667 994 q 659 959 667 969 q 638 949 651 949 l 179 949 l 179 540 z "},"Ė":{"ha":699,"x_min":110,"x_max":667,"o":"m 179 540 l 400 540 q 422 531 414 540 q 429 507 429 521 q 422 486 429 496 q 400 476 415 476 l 179 476 l 179 67 l 638 67 q 659 56 651 67 q 667 32 667 46 q 660 10 667 21 q 638 0 653 0 l 143 0 q 120 8 131 0 q 110 31 110 15 l 110 985 q 120 1008 110 1000 q 143 1015 131 1015 l 638 1015 q 660 1005 653 1015 q 667 983 667 994 q 659 959 667 969 q 638 949 651 949 l 179 949 l 179 540 m 390 1276 q 423 1264 410 1276 q 436 1232 436 1251 q 423 1199 436 1213 q 390 1186 410 1186 q 358 1199 371 1186 q 344 1232 344 1213 q 358 1264 344 1251 q 390 1276 371 1276 z "},"È":{"ha":699,"x_min":110,"x_max":667,"o":"m 179 540 l 400 540 q 422 531 414 540 q 429 507 429 521 q 422 486 429 496 q 400 476 415 476 l 179 476 l 179 67 l 638 67 q 659 56 651 67 q 667 32 667 46 q 660 10 667 21 q 638 0 653 0 l 143 0 q 120 8 131 0 q 110 31 110 15 l 110 985 q 120 1008 110 1000 q 143 1015 131 1015 l 638 1015 q 660 1005 653 1015 q 667 983 667 994 q 659 959 667 969 q 638 949 651 949 l 179 949 l 179 540 m 303 1265 q 288 1293 288 1275 q 295 1315 288 1304 q 315 1325 303 1325 q 325 1322 319 1325 l 474 1238 q 486 1217 486 1232 q 477 1194 486 1204 q 456 1185 468 1185 q 442 1189 450 1185 l 303 1265 z "},"Ē":{"ha":699,"x_min":110,"x_max":667,"o":"m 179 540 l 400 540 q 422 531 414 540 q 429 507 429 521 q 422 486 429 496 q 400 476 415 476 l 179 476 l 179 67 l 638 67 q 659 56 651 67 q 667 32 667 46 q 660 10 667 21 q 638 0 653 0 l 143 0 q 120 8 131 0 q 110 31 110 15 l 110 985 q 120 1008 110 1000 q 143 1015 131 1015 l 638 1015 q 660 1005 653 1015 q 667 983 667 994 q 659 959 667 969 q 638 949 651 949 l 179 949 l 179 540 m 208 1276 q 216 1298 208 1289 q 238 1307 224 1307 l 539 1307 q 560 1298 550 1307 q 569 1276 569 1289 q 560 1256 569 1264 q 539 1249 550 1249 l 238 1249 q 208 1276 208 1249 z "},"Ŋ":{"ha":783,"x_min":110,"x_max":672,"o":"m 493 -262 q 552 -247 531 -262 q 585 -206 574 -232 q 601 -143 597 -179 q 604 -64 604 -107 l 604 1 q 601 22 604 10 q 588 51 597 33 l 179 851 l 179 31 q 169 8 179 15 q 144 0 158 0 q 121 8 132 0 q 110 31 110 15 l 110 986 q 120 1009 110 1003 q 144 1015 131 1015 q 178 996 164 1015 q 201 958 192 976 l 603 165 l 603 986 q 614 1008 603 1001 q 638 1015 625 1015 q 662 1008 651 1015 q 672 986 672 1001 l 672 -64 q 663 -170 672 -122 q 633 -253 654 -218 q 579 -307 613 -287 q 497 -326 546 -326 q 471 -316 479 -326 q 463 -293 463 -306 q 472 -271 463 -279 q 493 -262 481 -262 z "},"Ę":{"ha":699,"x_min":110,"x_max":667,"o":"m 179 540 l 400 540 q 422 531 414 540 q 429 507 429 521 q 422 486 429 496 q 400 476 415 476 l 179 476 l 179 67 l 638 67 q 659 56 651 67 q 667 32 667 46 q 650 3 667 11 q 578 -78 607 -36 q 550 -172 550 -119 q 574 -219 550 -206 q 638 -232 597 -232 q 663 -254 663 -232 q 656 -270 663 -265 q 629 -275 649 -275 q 585 -270 607 -275 q 544 -254 563 -265 q 515 -224 526 -243 q 503 -176 503 -204 q 525 -81 503 -125 q 583 0 547 -37 l 143 0 q 120 8 131 0 q 110 31 110 15 l 110 985 q 120 1008 110 1000 q 143 1015 131 1015 l 638 1015 q 660 1005 653 1015 q 667 983 667 994 q 659 959 667 969 q 638 949 651 949 l 179 949 l 179 540 z "},"Ð":{"ha":783,"x_min":1,"x_max":683,"o":"m 403 1015 q 513 999 461 1015 q 602 949 564 983 q 662 858 640 914 q 683 724 683 803 l 683 292 q 662 157 683 213 q 602 67 640 101 q 513 16 564 32 q 403 0 461 0 l 157 0 q 133 9 142 0 q 124 29 124 18 l 124 503 l 29 503 q 9 512 17 503 q 1 533 1 521 q 9 555 1 546 q 29 564 17 564 l 124 564 l 124 986 q 133 1006 124 997 q 157 1015 142 1015 l 403 1015 m 193 949 l 193 564 l 364 564 q 383 555 375 564 q 392 533 392 546 q 383 512 392 521 q 364 503 375 503 l 193 503 l 193 67 l 403 67 q 558 121 503 67 q 614 292 614 175 l 614 724 q 558 894 614 840 q 403 949 503 949 l 193 949 z "},"€":{"ha":796,"x_min":49,"x_max":728,"o":"m 239 279 q 292 115 239 171 q 449 58 346 58 q 533 69 494 58 q 599 103 571 81 q 642 158 626 125 q 658 235 658 190 q 669 257 660 250 q 693 264 678 264 q 728 228 728 264 q 708 134 728 178 q 653 59 689 90 q 565 10 617 28 q 447 -8 513 -8 q 337 8 388 -8 q 249 60 286 25 q 190 149 211 94 q 169 279 169 203 l 169 358 l 76 358 q 56 367 64 358 q 49 388 49 375 q 56 410 49 401 q 76 419 64 419 l 169 419 l 169 561 l 76 561 q 56 569 64 561 q 49 590 49 578 q 56 613 49 604 q 76 622 64 622 l 169 622 l 169 724 q 191 858 169 803 q 250 949 213 914 q 338 999 288 983 q 447 1015 389 1015 q 565 997 513 1015 q 653 948 617 979 q 708 874 689 917 q 728 781 728 831 q 693 744 728 744 q 668 751 678 744 q 658 774 658 758 q 642 849 658 817 q 599 904 626 882 q 533 938 571 926 q 449 949 494 949 q 294 894 349 949 q 239 724 239 840 l 239 622 l 499 622 q 519 613 510 622 q 529 590 529 604 q 519 569 529 578 q 499 561 510 561 l 239 561 l 239 419 l 499 419 q 519 410 510 419 q 529 389 529 401 q 519 367 529 375 q 499 358 510 358 l 239 358 l 239 279 z "},"F":{"ha":683,"x_min":110,"x_max":665,"o":"m 110 985 q 120 1008 110 1000 q 143 1015 131 1015 l 636 1015 q 658 1005 651 1015 q 665 983 665 994 q 658 959 665 969 q 636 949 650 949 l 179 949 l 179 540 l 400 540 q 422 531 414 540 q 429 507 429 521 q 422 486 429 496 q 400 476 415 476 l 179 476 l 179 29 q 169 7 179 14 q 144 0 158 0 q 121 7 132 0 q 110 29 110 14 l 110 985 z "},"G":{"ha":744,"x_min":100,"x_max":660,"o":"m 590 774 q 525 905 579 861 q 379 949 471 949 q 224 894 279 949 q 169 724 169 840 l 169 283 q 224 113 169 167 q 379 58 279 58 q 535 113 479 58 q 590 283 590 167 l 590 469 l 385 469 q 364 480 371 469 q 357 501 357 490 q 364 523 357 513 q 385 533 371 533 l 631 533 q 652 524 644 533 q 660 501 660 514 l 660 283 q 638 149 660 204 q 578 58 617 93 q 489 8 540 24 q 379 -8 438 -8 q 269 8 319 -8 q 181 58 218 24 q 122 149 143 93 q 100 283 100 204 l 100 724 q 122 858 100 803 q 181 949 143 914 q 269 999 218 983 q 378 1015 319 1015 q 495 997 443 1015 q 584 948 547 979 q 640 874 621 917 q 660 781 660 831 q 650 753 660 761 q 625 744 640 744 q 601 751 611 744 q 590 774 592 758 z "},"Ğ":{"ha":744,"x_min":100,"x_max":660,"o":"m 590 774 q 525 905 579 861 q 379 949 471 949 q 224 894 279 949 q 169 724 169 840 l 169 283 q 224 113 169 167 q 379 58 279 58 q 535 113 479 58 q 590 283 590 167 l 590 469 l 385 469 q 364 480 371 469 q 357 501 357 490 q 364 523 357 513 q 385 533 371 533 l 631 533 q 652 524 644 533 q 660 501 660 514 l 660 283 q 638 149 660 204 q 578 58 617 93 q 489 8 540 24 q 379 -8 438 -8 q 269 8 319 -8 q 181 58 218 24 q 122 149 143 93 q 100 283 100 204 l 100 724 q 122 858 100 803 q 181 949 143 914 q 269 999 218 983 q 378 1015 319 1015 q 495 997 443 1015 q 584 948 547 979 q 640 874 621 917 q 660 781 660 831 q 650 753 660 761 q 625 744 640 744 q 601 751 611 744 q 590 774 592 758 m 535 1346 q 522 1285 535 1314 q 487 1235 508 1257 q 438 1201 465 1214 q 379 1189 410 1189 q 319 1201 347 1189 q 269 1235 292 1214 q 235 1285 247 1257 q 222 1346 222 1314 l 275 1346 q 306 1265 275 1297 q 379 1232 336 1232 q 418 1241 400 1232 q 451 1265 436 1250 q 474 1301 465 1281 q 482 1346 482 1322 l 535 1346 z "},"Ĝ":{"ha":744,"x_min":100,"x_max":660,"o":"m 232 1189 q 226 1186 229 1188 q 221 1185 224 1185 q 201 1194 210 1185 q 193 1217 193 1203 q 208 1240 193 1232 l 353 1318 q 376 1325 364 1325 q 400 1318 389 1325 l 544 1242 q 560 1214 560 1233 q 552 1194 560 1203 q 533 1186 544 1186 q 527 1188 531 1186 q 521 1190 524 1189 l 376 1267 l 232 1189 m 590 774 q 525 905 579 861 q 379 949 471 949 q 224 894 279 949 q 169 724 169 840 l 169 283 q 224 113 169 167 q 379 58 279 58 q 535 113 479 58 q 590 283 590 167 l 590 469 l 385 469 q 364 480 371 469 q 357 501 357 490 q 364 523 357 513 q 385 533 371 533 l 631 533 q 652 524 644 533 q 660 501 660 514 l 660 283 q 638 149 660 204 q 578 58 617 93 q 489 8 540 24 q 379 -8 438 -8 q 269 8 319 -8 q 181 58 218 24 q 122 149 143 93 q 100 283 100 204 l 100 724 q 122 858 100 803 q 181 949 143 914 q 269 999 218 983 q 378 1015 319 1015 q 495 997 443 1015 q 584 948 547 979 q 640 874 621 917 q 660 781 660 831 q 650 753 660 761 q 625 744 640 744 q 601 751 611 744 q 590 774 592 758 z "},"Ģ":{"ha":744,"x_min":100,"x_max":660,"o":"m 319 -203 q 307 -207 313 -207 q 285 -197 294 -207 q 275 -175 275 -187 q 289 -154 275 -160 l 436 -69 q 447 -67 444 -67 q 467 -77 460 -67 q 475 -99 475 -87 q 458 -126 475 -117 l 319 -203 m 590 774 q 525 905 579 861 q 379 949 471 949 q 224 894 279 949 q 169 724 169 840 l 169 283 q 224 113 169 167 q 379 58 279 58 q 535 113 479 58 q 590 283 590 167 l 590 469 l 385 469 q 364 480 371 469 q 357 501 357 490 q 364 523 357 513 q 385 533 371 533 l 631 533 q 652 524 644 533 q 660 501 660 514 l 660 283 q 638 149 660 204 q 578 58 617 93 q 489 8 540 24 q 379 -8 438 -8 q 269 8 319 -8 q 181 58 218 24 q 122 149 143 93 q 100 283 100 204 l 100 724 q 122 858 100 803 q 181 949 143 914 q 269 999 218 983 q 378 1015 319 1015 q 495 997 443 1015 q 584 948 547 979 q 640 874 621 917 q 660 781 660 831 q 650 753 660 761 q 625 744 640 744 q 601 751 611 744 q 590 774 592 758 z "},"Ġ":{"ha":744,"x_min":100,"x_max":660,"o":"m 590 774 q 525 905 579 861 q 379 949 471 949 q 224 894 279 949 q 169 724 169 840 l 169 283 q 224 113 169 167 q 379 58 279 58 q 535 113 479 58 q 590 283 590 167 l 590 469 l 385 469 q 364 480 371 469 q 357 501 357 490 q 364 523 357 513 q 385 533 371 533 l 631 533 q 652 524 644 533 q 660 501 660 514 l 660 283 q 638 149 660 204 q 578 58 617 93 q 489 8 540 24 q 379 -8 438 -8 q 269 8 319 -8 q 181 58 218 24 q 122 149 143 93 q 100 283 100 204 l 100 724 q 122 858 100 803 q 181 949 143 914 q 269 999 218 983 q 378 1015 319 1015 q 495 997 443 1015 q 584 948 547 979 q 640 874 621 917 q 660 781 660 831 q 650 753 660 761 q 625 744 640 744 q 601 751 611 744 q 590 774 592 758 m 379 1276 q 412 1264 399 1276 q 425 1232 425 1251 q 412 1199 425 1213 q 379 1186 399 1186 q 347 1199 360 1186 q 333 1232 333 1213 q 347 1264 333 1251 q 379 1276 360 1276 z "},"H":{"ha":782,"x_min":110,"x_max":672,"o":"m 603 494 l 179 494 l 179 31 q 169 8 179 15 q 144 0 158 0 q 121 8 132 0 q 110 31 110 15 l 110 986 q 121 1008 110 1001 q 144 1015 132 1015 q 169 1008 158 1015 q 179 986 179 1001 l 179 558 l 603 558 l 603 986 q 614 1008 603 1001 q 638 1015 625 1015 q 662 1008 651 1015 q 672 986 672 1001 l 672 31 q 662 8 672 15 q 638 0 651 0 q 614 8 625 0 q 603 31 603 15 l 603 494 z "},"Ħ":{"ha":785,"x_min":28,"x_max":756,"o":"m 604 494 l 181 494 l 181 31 q 170 8 181 15 q 146 0 160 0 q 122 8 133 0 q 111 31 111 15 l 111 753 l 56 753 q 35 761 43 753 q 28 781 28 769 q 35 802 28 793 q 56 811 43 811 l 111 811 l 111 986 q 122 1008 111 1001 q 146 1015 133 1015 q 170 1008 160 1015 q 181 986 181 1001 l 181 811 l 604 811 l 604 986 q 615 1008 604 1001 q 639 1015 626 1015 q 663 1008 653 1015 q 674 986 674 1001 l 674 811 l 728 811 q 747 802 739 811 q 756 781 756 793 q 747 761 756 769 q 728 753 739 753 l 674 753 l 674 31 q 663 8 674 15 q 639 0 653 0 q 615 8 626 0 q 604 31 604 15 l 604 494 m 604 558 l 604 753 l 181 753 l 181 558 l 604 558 z "},"Ĥ":{"ha":782,"x_min":110,"x_max":672,"o":"m 247 1189 q 242 1186 244 1188 q 236 1185 239 1185 q 217 1194 225 1185 q 208 1217 208 1203 q 224 1240 208 1232 l 368 1318 q 392 1325 379 1325 q 415 1318 404 1325 l 560 1242 q 575 1214 575 1233 q 567 1194 575 1203 q 549 1186 560 1186 q 542 1188 546 1186 q 536 1190 539 1189 l 392 1267 l 247 1189 m 603 494 l 179 494 l 179 31 q 169 8 179 15 q 144 0 158 0 q 121 8 132 0 q 110 31 110 15 l 110 986 q 121 1008 110 1001 q 144 1015 132 1015 q 169 1008 158 1015 q 179 986 179 1001 l 179 558 l 603 558 l 603 986 q 614 1008 603 1001 q 638 1015 625 1015 q 662 1008 651 1015 q 672 986 672 1001 l 672 31 q 662 8 672 15 q 638 0 651 0 q 614 8 625 0 q 603 31 603 15 l 603 494 z "},"I":{"ha":289,"x_min":110,"x_max":179,"o":"m 110 986 q 121 1008 110 1001 q 144 1015 132 1015 q 169 1008 158 1015 q 179 986 179 1001 l 179 31 q 169 8 179 15 q 144 0 158 0 q 121 8 132 0 q 110 31 110 15 l 110 986 z "},"Ĳ":{"ha":983,"x_min":110,"x_max":878,"o":"m 110 986 q 121 1008 110 1001 q 144 1015 132 1015 q 169 1008 158 1015 q 179 986 179 1001 l 179 31 q 169 8 179 15 q 144 0 158 0 q 121 8 132 0 q 110 31 110 15 l 110 986 m 600 949 q 578 959 585 949 q 571 983 571 969 q 578 1005 571 994 q 600 1015 585 1015 l 844 1015 q 867 1008 857 1015 q 878 985 878 1000 l 878 283 q 856 149 878 204 q 797 58 835 93 q 709 8 760 24 q 600 -8 658 -8 q 483 10 535 -8 q 394 59 431 28 q 338 134 357 90 q 318 228 318 178 q 328 256 318 249 q 353 264 338 264 q 376 257 365 264 q 388 235 388 250 q 448 103 389 147 q 599 58 507 58 q 753 113 699 58 q 808 283 808 167 l 808 949 l 600 949 z "},"Í":{"ha":289,"x_min":46,"x_max":244,"o":"m 110 986 q 121 1008 110 1001 q 144 1015 132 1015 q 169 1008 158 1015 q 179 986 179 1001 l 179 31 q 169 8 179 15 q 144 0 158 0 q 121 8 132 0 q 110 31 110 15 l 110 986 m 90 1189 q 76 1185 83 1185 q 55 1194 64 1185 q 46 1217 46 1204 q 58 1238 46 1232 l 207 1322 q 218 1325 213 1325 q 238 1315 231 1325 q 244 1293 244 1304 q 229 1265 244 1275 l 90 1189 z "},"Ĭ":{"ha":289,"x_min":-11,"x_max":301,"o":"m 110 986 q 121 1008 110 1001 q 144 1015 132 1015 q 169 1008 158 1015 q 179 986 179 1001 l 179 31 q 169 8 179 15 q 144 0 158 0 q 121 8 132 0 q 110 31 110 15 l 110 986 m 301 1346 q 288 1285 301 1314 q 253 1235 275 1257 q 204 1201 232 1214 q 146 1189 176 1189 q 86 1201 114 1189 q 36 1235 58 1214 q 1 1285 14 1257 q -11 1346 -11 1314 l 42 1346 q 72 1265 42 1297 q 146 1232 103 1232 q 185 1241 167 1232 q 217 1265 203 1250 q 240 1301 232 1281 q 249 1346 249 1322 l 301 1346 z "},"Î":{"ha":289,"x_min":-37,"x_max":329,"o":"m 110 986 q 121 1008 110 1001 q 144 1015 132 1015 q 169 1008 158 1015 q 179 986 179 1001 l 179 31 q 169 8 179 15 q 144 0 158 0 q 121 8 132 0 q 110 31 110 15 l 110 986 m 1 1189 q -4 1186 -1 1188 q -10 1185 -7 1185 q -29 1194 -21 1185 q -37 1217 -37 1203 q -22 1240 -37 1232 l 122 1318 q 146 1325 133 1325 q 169 1318 158 1325 l 314 1242 q 329 1214 329 1233 q 322 1194 329 1203 q 303 1186 314 1186 q 297 1188 300 1186 q 290 1190 293 1189 l 146 1267 l 1 1189 z "},"Ï":{"ha":289,"x_min":18,"x_max":271,"o":"m 110 986 q 121 1008 110 1001 q 144 1015 132 1015 q 169 1008 158 1015 q 179 986 179 1001 l 179 31 q 169 8 179 15 q 144 0 158 0 q 121 8 132 0 q 110 31 110 15 l 110 986 m 64 1276 q 96 1264 83 1276 q 108 1232 108 1251 q 96 1199 108 1213 q 64 1186 83 1186 q 31 1199 44 1186 q 18 1232 18 1213 q 31 1264 18 1251 q 64 1276 44 1276 m 226 1276 q 258 1264 246 1276 q 271 1232 271 1251 q 258 1199 271 1213 q 226 1186 246 1186 q 193 1199 206 1186 q 181 1232 181 1213 q 193 1264 181 1251 q 226 1276 206 1276 z "},"İ":{"ha":289,"x_min":99,"x_max":190,"o":"m 110 986 q 121 1008 110 1001 q 144 1015 132 1015 q 169 1008 158 1015 q 179 986 179 1001 l 179 31 q 169 8 179 15 q 144 0 158 0 q 121 8 132 0 q 110 31 110 15 l 110 986 m 144 1276 q 177 1264 164 1276 q 190 1232 190 1251 q 177 1199 190 1213 q 144 1186 164 1186 q 112 1199 125 1186 q 99 1232 99 1213 q 112 1264 99 1251 q 144 1276 125 1276 z "},"Ì":{"ha":289,"x_min":43,"x_max":242,"o":"m 110 986 q 121 1008 110 1001 q 144 1015 132 1015 q 169 1008 158 1015 q 179 986 179 1001 l 179 31 q 169 8 179 15 q 144 0 158 0 q 121 8 132 0 q 110 31 110 15 l 110 986 m 58 1265 q 43 1293 43 1275 q 51 1315 43 1304 q 71 1325 58 1325 q 81 1322 75 1325 l 229 1238 q 242 1217 242 1232 q 233 1194 242 1204 q 211 1185 224 1185 q 197 1189 206 1185 l 58 1265 z "},"Ī":{"ha":289,"x_min":-35,"x_max":326,"o":"m 110 986 q 121 1008 110 1001 q 144 1015 132 1015 q 169 1008 158 1015 q 179 986 179 1001 l 179 31 q 169 8 179 15 q 144 0 158 0 q 121 8 132 0 q 110 31 110 15 l 110 986 m -35 1276 q -27 1298 -35 1289 q -6 1307 -19 1307 l 296 1307 q 317 1298 307 1307 q 326 1276 326 1289 q 317 1256 326 1264 q 296 1249 307 1249 l -6 1249 q -35 1276 -35 1249 z "},"Į":{"ha":290,"x_min":22,"x_max":182,"o":"m 157 -226 q 182 -249 182 -226 q 175 -265 182 -260 q 149 -269 168 -269 q 104 -265 126 -269 q 64 -249 82 -260 q 34 -218 46 -237 q 22 -171 22 -199 q 47 -70 22 -117 q 114 17 72 -24 q 111 31 111 21 l 111 986 q 122 1008 111 1001 q 146 1015 133 1015 q 170 1008 160 1015 q 181 986 181 1001 l 181 31 q 164 4 181 11 q 97 -74 124 -33 q 69 -167 69 -115 q 93 -213 69 -200 q 157 -226 117 -226 z "},"Ĩ":{"ha":289,"x_min":-64,"x_max":356,"o":"m 110 986 q 121 1008 110 1001 q 144 1015 132 1015 q 169 1008 158 1015 q 179 986 179 1001 l 179 31 q 169 8 179 15 q 144 0 158 0 q 121 8 132 0 q 110 31 110 15 l 110 986 m 57 1260 q 19 1253 35 1260 q -7 1237 4 1246 q -26 1221 -18 1228 q -42 1214 -33 1214 q -58 1223 -53 1214 q -64 1243 -64 1232 q -51 1273 -64 1260 q -20 1297 -39 1286 q 20 1313 -1 1307 q 60 1318 42 1318 q 107 1310 86 1318 q 148 1293 128 1303 q 190 1276 168 1283 q 239 1268 211 1268 q 276 1275 263 1268 q 300 1290 290 1282 q 317 1304 310 1297 q 332 1311 324 1311 q 349 1303 343 1311 q 356 1285 356 1294 q 343 1251 356 1265 q 313 1228 331 1238 q 274 1215 294 1219 q 239 1210 254 1210 q 192 1217 213 1210 q 150 1235 171 1225 q 108 1252 129 1244 q 57 1260 86 1260 z "},"J":{"ha":699,"x_min":33,"x_max":593,"o":"m 315 949 q 293 959 300 949 q 286 983 286 969 q 293 1005 286 994 q 315 1015 300 1015 l 560 1015 q 583 1008 572 1015 q 593 985 593 1000 l 593 283 q 572 149 593 204 q 513 58 550 93 q 424 8 475 24 q 315 -8 374 -8 q 198 10 250 -8 q 109 59 146 28 q 53 134 72 90 q 33 228 33 178 q 43 256 33 249 q 68 264 53 264 q 92 257 81 264 q 103 235 103 250 q 163 103 104 147 q 314 58 222 58 q 469 113 414 58 q 524 283 524 167 l 524 949 l 315 949 z "},"Ĵ":{"ha":699,"x_min":33,"x_max":593,"o":"m 206 1189 q 200 1186 203 1188 q 194 1185 197 1185 q 175 1194 183 1185 q 167 1217 167 1203 q 182 1240 167 1232 l 326 1318 q 350 1325 338 1325 q 374 1318 363 1325 l 518 1242 q 533 1214 533 1233 q 526 1194 533 1203 q 507 1186 518 1186 q 501 1188 504 1186 q 494 1190 497 1189 l 350 1267 l 206 1189 m 315 949 q 293 959 300 949 q 286 983 286 969 q 293 1005 286 994 q 315 1015 300 1015 l 560 1015 q 583 1008 572 1015 q 593 985 593 1000 l 593 283 q 572 149 593 204 q 513 58 550 93 q 424 8 475 24 q 315 -8 374 -8 q 198 10 250 -8 q 109 59 146 28 q 53 134 72 90 q 33 228 33 178 q 43 256 33 249 q 68 264 53 264 q 92 257 81 264 q 103 235 103 250 q 163 103 104 147 q 314 58 222 58 q 469 113 414 58 q 524 283 524 167 l 524 949 l 315 949 z "},"K":{"ha":714,"x_min":110,"x_max":706,"o":"m 110 986 q 121 1008 110 1001 q 144 1015 132 1015 q 169 1008 158 1015 q 179 986 179 1001 l 179 467 l 606 1004 q 616 1013 610 1011 q 629 1015 622 1015 q 655 1004 643 1015 q 667 979 667 993 q 660 963 667 968 l 350 576 l 700 49 q 706 33 706 43 q 694 9 706 19 q 667 -1 682 -1 q 640 15 650 -1 l 304 518 l 179 363 l 179 31 q 169 8 179 15 q 144 0 158 0 q 121 8 132 0 q 110 31 110 15 l 110 986 z "},"Ķ":{"ha":714,"x_min":110,"x_max":706,"o":"m 301 -203 q 289 -207 294 -207 q 267 -197 276 -207 q 257 -175 257 -187 q 271 -154 257 -160 l 418 -69 q 429 -67 426 -67 q 449 -77 442 -67 q 457 -99 457 -87 q 440 -126 457 -117 l 301 -203 m 110 986 q 121 1008 110 1001 q 144 1015 132 1015 q 169 1008 158 1015 q 179 986 179 1001 l 179 467 l 606 1004 q 616 1013 610 1011 q 629 1015 622 1015 q 655 1004 643 1015 q 667 979 667 993 q 660 963 667 968 l 350 576 l 700 49 q 706 33 706 43 q 694 9 706 19 q 667 -1 682 -1 q 640 15 650 -1 l 304 518 l 179 363 l 179 31 q 169 8 179 15 q 144 0 158 0 q 121 8 132 0 q 110 31 110 15 l 110 986 z "},"L":{"ha":635,"x_min":110,"x_max":615,"o":"m 143 0 q 120 8 131 0 q 110 31 110 15 l 110 986 q 121 1008 110 1001 q 144 1015 132 1015 q 169 1008 158 1015 q 179 986 179 1001 l 179 67 l 589 67 q 609 56 603 67 q 615 33 615 46 q 609 10 615 21 q 589 0 603 0 l 143 0 z "},"Ĺ":{"ha":635,"x_min":110,"x_max":615,"o":"m 306 1189 q 292 1185 299 1185 q 270 1194 279 1185 q 261 1217 261 1204 q 274 1238 261 1232 l 422 1322 q 433 1325 428 1325 q 453 1315 446 1325 q 460 1293 460 1304 q 444 1265 460 1275 l 306 1189 m 143 0 q 120 8 131 0 q 110 31 110 15 l 110 986 q 121 1008 110 1001 q 144 1015 132 1015 q 169 1008 158 1015 q 179 986 179 1001 l 179 67 l 589 67 q 609 56 603 67 q 615 33 615 46 q 609 10 615 21 q 589 0 603 0 l 143 0 z "},"Ľ":{"ha":635,"x_min":110,"x_max":615,"o":"m 461 1029 q 500 1013 483 1029 q 517 972 517 996 q 502 915 517 957 q 465 828 488 874 q 443 813 458 813 q 424 819 433 813 q 415 838 415 826 q 418 847 415 844 l 444 918 q 415 940 426 925 q 404 972 404 954 q 420 1013 404 996 q 461 1029 436 1029 m 143 0 q 120 8 131 0 q 110 31 110 15 l 110 986 q 121 1008 110 1001 q 144 1015 132 1015 q 169 1008 158 1015 q 179 986 179 1001 l 179 67 l 589 67 q 609 56 603 67 q 615 33 615 46 q 609 10 615 21 q 589 0 603 0 l 143 0 z "},"Ļ":{"ha":635,"x_min":110,"x_max":615,"o":"m 296 -203 q 283 -207 289 -207 q 261 -197 271 -207 q 251 -175 251 -187 q 265 -154 251 -160 l 413 -69 q 424 -67 421 -67 q 444 -77 436 -67 q 451 -99 451 -87 q 435 -126 451 -117 l 296 -203 m 143 0 q 120 8 131 0 q 110 31 110 15 l 110 986 q 121 1008 110 1001 q 144 1015 132 1015 q 169 1008 158 1015 q 179 986 179 1001 l 179 67 l 589 67 q 609 56 603 67 q 615 33 615 46 q 609 10 615 21 q 589 0 603 0 l 143 0 z "},"Ŀ":{"ha":635,"x_min":110,"x_max":615,"o":"m 143 0 q 120 8 131 0 q 110 31 110 15 l 110 986 q 121 1008 110 1001 q 144 1015 132 1015 q 169 1008 158 1015 q 179 986 179 1001 l 179 67 l 589 67 q 609 56 603 67 q 615 33 615 46 q 609 10 615 21 q 589 0 603 0 l 143 0 m 457 640 q 497 624 481 640 q 513 585 513 608 q 497 546 513 563 q 457 529 481 529 q 416 546 432 529 q 400 585 400 563 q 416 624 400 608 q 457 640 432 640 z "},"Ł":{"ha":643,"x_min":6,"x_max":624,"o":"m 151 0 q 128 8 139 0 q 118 31 118 15 l 118 411 l 47 372 q 35 368 40 368 q 15 378 24 368 q 6 403 6 389 q 9 416 6 410 q 19 425 13 422 l 118 481 l 118 986 q 129 1008 118 1001 q 153 1015 140 1015 q 177 1008 167 1015 q 188 986 188 1001 l 188 519 l 336 604 q 349 607 340 607 q 370 597 361 607 q 379 575 379 588 q 365 550 379 560 l 188 450 l 188 67 l 597 67 q 617 56 611 67 q 624 33 624 46 q 617 10 624 21 q 597 0 611 0 l 151 0 z "}}}
